<?xml version="1.0" encoding="UTF-8" standalone="no"?>
<!-- Created with Inkscape (http://www.inkscape.org/) -->

<svg
   version="1.1"
   id="svg1"
   width="1000"
   height="900"
   viewBox="0 0 1000 900"
   sodipodi:docname="link-chart.svg"
   xml:space="preserve"
   inkscape:version="1.3.2 (091e20e, 2023-11-25, custom)"
   xmlns:inkscape="http://www.inkscape.org/namespaces/inkscape"
   xmlns:sodipodi="http://sodipodi.sourceforge.net/DTD/sodipodi-0.dtd"
   xmlns="http://www.w3.org/2000/svg"
   xmlns:svg="http://www.w3.org/2000/svg"><defs
     id="defs1">
	
	
	
	
	
	
	
<clipPath
   id="clip0_429_11128"><rect
     width="24"
     height="24"
     fill="white"
     id="rect1" /></clipPath></defs><sodipodi:namedview
     id="namedview1"
     pagecolor="#505050"
     bordercolor="#eeeeee"
     borderopacity="1"
     inkscape:showpageshadow="0"
     inkscape:pageopacity="0"
     inkscape:pagecheckerboard="0"
     inkscape:deskcolor="#505050"
     inkscape:zoom="0.27500002"
     inkscape:cx="469.09088"
     inkscape:cy="558.18178"
     inkscape:window-width="1366"
     inkscape:window-height="745"
     inkscape:window-x="-8"
     inkscape:window-y="-8"
     inkscape:window-maximized="1"
     inkscape:current-layer="layer2" /><g
     inkscape:groupmode="layer"
     inkscape:label="Image"
     id="g1" /><g
     inkscape:groupmode="layer"
     id="layer1"
     inkscape:label="mountains" /><g
     inkscape:groupmode="layer"
     id="layer2"
     inkscape:label="cactus"><g
       id="g3"
       transform="translate(-4.1644404e-6,23.179643)"><path
         d="m 519.45742,493.77393 c -3.41782,0 -6.18328,-2.78035 -6.18328,-6.2159 0,-3.43554 2.76546,-6.20809 6.18328,-6.20809 3.41781,0 6.18327,2.77255 6.18327,6.20809 0,3.43555 -2.76546,6.2159 -6.18327,6.2159 m -18.94691,10.93418 c 36.00764,0 33.75982,-15.69573 33.75982,-15.69573 l -0.0425,-16.25875 h -34.35546 v -4.8828 h 47.99837 c 0,0 23.03836,2.63002 23.03836,-33.88675 0,-36.51606 -20.10272,-35.22622 -20.10272,-35.22622 h -12.00491 v 16.9501 c 0,0 0.64526,20.20839 -19.78365,20.20839 H 484.9389 c 0,0 -19.14546,-0.30491 -19.14546,18.60372 v 31.26311 c 0,0 -2.90727,18.92493 34.7171,18.92493 M 480.5496,373.82409 c 3.41781,0 6.17617,2.78034 6.17617,6.21589 0,3.43555 -2.75836,6.20809 -6.17617,6.20809 -3.41783,0 -6.18328,-2.77254 -6.18328,-6.20809 0,-3.43555 2.76545,-6.21589 6.18328,-6.21589 m 18.93981,-10.93419 c -36.00055,0 -33.75273,15.69574 -33.75273,15.69574 l 0.0426,16.25874 h 34.35546 v 4.8828 h -48.00547 c 0,0 -23.03837,-2.63002 -23.03837,33.88675 0,36.51606 20.10982,35.22623 20.10982,35.22623 h 11.99782 v -16.95011 c 0,0 -0.64527,-20.20839 19.79074,-20.20839 h 34.07182 c 0,0 19.14545,0.30491 19.14545,-18.60371 v -31.26311 c 0,0 2.90728,-18.92494 -34.71709,-18.92494"
         id="python-[#127]"
         style="fill:#1ee592;fill-opacity:1;fill-rule:evenodd;stroke:none;stroke-width:7.09092" /><path
         d="m 499.97928,544.02483 0.0354,83.26441 m 0,0 34.67882,-34.70819 m -34.67882,34.70819 -34.70818,-34.67882"
         stroke="#000000"
         stroke-width="13.8774"
         stroke-linecap="round"
         stroke-linejoin="round"
         id="path1-6"
         style="fill:#1ee592;fill-opacity:1;stroke:#1ee592;stroke-opacity:1" /><path
         d="m 499.97928,240.30877 0.0354,83.26441 m 0,0 34.67882,-34.70819 m -34.67882,34.70819 -34.70818,-34.67881"
         stroke="#000000"
         stroke-width="13.8774"
         stroke-linecap="round"
         stroke-linejoin="round"
         id="path1-6-4"
         style="fill:#1ee592;fill-opacity:1;stroke:#1ee592;stroke-opacity:1" /><g
         id="g11"
         transform="matrix(0.74465514,0.15549,-0.15549,0.74465514,181.4386,-150.80915)"
         style="fill:#1ee592;fill-opacity:1"><circle
           style="opacity:0.99;fill:#1ee592;fill-opacity:1;stroke-width:3.918"
           id="path10"
           cx="304.69873"
           cy="220.48874"
           r="25" /><circle
           style="opacity:0.99;fill:#1ee592;fill-opacity:1;stroke-width:3.918"
           id="path10-9"
           cx="525"
           cy="266"
           r="25" /><circle
           style="opacity:0.99;fill:#1ee592;fill-opacity:1;stroke-width:3.918"
           id="path10-2"
           cx="407.58279"
           cy="285.00137"
           r="25" /><circle
           style="opacity:0.99;fill:#1ee592;fill-opacity:1;stroke-width:3.918"
           id="path10-6"
           cx="413.86017"
           cy="192.00597"
           r="25" /><circle
           style="opacity:0.99;fill:#1ee592;fill-opacity:1;stroke-width:3.918"
           id="path10-4"
           cx="528.85468"
           cy="180.86017"
           r="25" /><circle
           style="opacity:0.99;fill:#1ee592;fill-opacity:1;stroke-width:3.918"
           id="path10-1"
           cx="670.70837"
           cy="214.85649"
           r="25" /><circle
           style="opacity:0.99;fill:#1ee592;fill-opacity:1;stroke-width:3.918"
           id="path10-7"
           cx="602.00458"
           cy="302.13983"
           r="25" /><circle
           style="opacity:0.99;fill:#1ee592;fill-opacity:1;stroke-width:3.918"
           id="path10-62"
           cx="509.43375"
           cy="338.14261"
           r="25" /><circle
           style="opacity:0.99;fill:#1ee592;fill-opacity:1;stroke-width:3.918"
           id="path10-8"
           cx="380.57956"
           cy="367.4278"
           r="25" /><circle
           style="opacity:0.99;fill:#1ee592;fill-opacity:1;stroke-width:3.918"
           id="path10-0"
           cx="294.00366"
           cy="307.7171"
           r="25" /></g><g
         style="fill:none;fill-opacity:1;stroke:#1ee592;stroke-opacity:1"
         id="g2"
         transform="matrix(8.7936106,0,0,8.7936106,394.47667,635.84886)"><path
           d="m 3,9.5 h 18 m -18,5 H 21 M 8,4.5 v 15 m -1.8,0 h 11.6 c 1.1201,0 1.6802,0 2.108,-0.218 0.3763,-0.1917 0.6823,-0.4977 0.874,-0.874 C 21,17.9802 21,17.4201 21,16.3 V 7.7 C 21,6.5799 21,6.01984 20.782,5.59202 20.5903,5.21569 20.2843,4.90973 19.908,4.71799 19.4802,4.5 18.9201,4.5 17.8,4.5 H 6.2 C 5.0799,4.5 4.51984,4.5 4.09202,4.71799 3.71569,4.90973 3.40973,5.21569 3.21799,5.59202 3,6.01984 3,6.57989 3,7.7 v 8.6 c 0,1.1201 0,1.6802 0.21799,2.108 0.19174,0.3763 0.4977,0.6823 0.87403,0.874 C 4.51984,19.5 5.07989,19.5 6.2,19.5 Z"
           stroke="#000000"
           stroke-width="2"
           id="path1"
           style="fill:none;fill-opacity:1;stroke:#1ee592;stroke-opacity:1" /></g></g></g></svg>
