<?xml version="1.0" encoding="UTF-8" standalone="no"?>
<!-- Created with Inkscape (http://www.inkscape.org/) -->

<svg
   version="1.1"
   id="svg1"
   width="1000"
   height="900"
   viewBox="0 0 1000 900"
   sodipodi:docname="link-chart.svg"
   xml:space="preserve"
   inkscape:version="1.3.2 (091e20e, 2023-11-25, custom)"
   xmlns:inkscape="http://www.inkscape.org/namespaces/inkscape"
   xmlns:sodipodi="http://sodipodi.sourceforge.net/DTD/sodipodi-0.dtd"
   xmlns="http://www.w3.org/2000/svg"
   xmlns:svg="http://www.w3.org/2000/svg"><defs
     id="defs1">
	
	
	
	
	
	
	
<clipPath
   id="clip0_429_11128"><rect
     width="24"
     height="24"
     fill="white"
     id="rect1" /></clipPath></defs><sodipodi:namedview
     id="namedview1"
     pagecolor="#505050"
     bordercolor="#eeeeee"
     borderopacity="1"
     inkscape:showpageshadow="0"
     inkscape:pageopacity="0"
     inkscape:pagecheckerboard="0"
     inkscape:deskcolor="#505050"
     inkscape:zoom="0.13750001"
     inkscape:cx="-498.1818"
     inkscape:cy="199.99999"
     inkscape:window-width="1366"
     inkscape:window-height="745"
     inkscape:window-x="-8"
     inkscape:window-y="-8"
     inkscape:window-maximized="1"
     inkscape:current-layer="layer2" /><g
     inkscape:groupmode="layer"
     inkscape:label="Image"
     id="g1" /><g
     inkscape:groupmode="layer"
     id="layer1"
     inkscape:label="mountains" /><g
     inkscape:groupmode="layer"
     id="layer2"
     inkscape:label="cactus"><g
       id="g12"
       transform="translate(0,-29.813163)"><path
         d="m 519.45742,508.11219 c -3.41782,0 -6.18328,-2.78035 -6.18328,-6.2159 0,-3.43554 2.76546,-6.20809 6.18328,-6.20809 3.41781,0 6.18327,2.77255 6.18327,6.20809 0,3.43555 -2.76546,6.2159 -6.18327,6.2159 m -18.94691,10.93418 c 36.00764,0 33.75982,-15.69573 33.75982,-15.69573 l -0.0425,-16.25875 h -34.35546 v -4.8828 h 47.99837 c 0,0 23.03836,2.63002 23.03836,-33.88675 0,-36.51606 -20.10272,-35.22622 -20.10272,-35.22622 h -12.00491 v 16.9501 c 0,0 0.64526,20.20839 -19.78365,20.20839 H 484.9389 c 0,0 -19.14546,-0.30491 -19.14546,18.60372 v 31.26311 c 0,0 -2.90727,18.92493 34.7171,18.92493 M 480.5496,388.16235 c 3.41781,0 6.17617,2.78034 6.17617,6.21589 0,3.43555 -2.75836,6.20809 -6.17617,6.20809 -3.41783,0 -6.18328,-2.77254 -6.18328,-6.20809 0,-3.43555 2.76545,-6.21589 6.18328,-6.21589 m 18.93981,-10.93419 c -36.00055,0 -33.75273,15.69574 -33.75273,15.69574 l 0.0426,16.25874 h 34.35546 v 4.8828 h -48.00547 c 0,0 -23.03837,-2.63002 -23.03837,33.88675 0,36.51606 20.10982,35.22623 20.10982,35.22623 h 11.99782 v -16.95011 c 0,0 -0.64527,-20.20839 19.79074,-20.20839 h 34.07182 c 0,0 19.14545,0.30491 19.14545,-18.60371 V 396.1531 c 0,0 2.90728,-18.92494 -34.71709,-18.92494"
         id="python-[#127]"
         style="fill:#1ee592;fill-opacity:1;fill-rule:evenodd;stroke:none;stroke-width:7.09092" /><path
         d="m 501.6863,550.62564 0.0354,83.26441 m 0,0 34.67882,-34.70819 m -34.67882,34.70819 -34.70818,-34.67882"
         stroke="#000000"
         stroke-width="13.8774"
         stroke-linecap="round"
         stroke-linejoin="round"
         id="path1-6"
         style="fill:#1ee592;fill-opacity:1;stroke:#1ee592;stroke-opacity:1" /><path
         d="m 498.27228,262.38448 0.0354,83.26441 m 0,0 34.67882,-34.70819 m -34.67882,34.70819 -34.70818,-34.67881"
         stroke="#000000"
         stroke-width="13.8774"
         stroke-linecap="round"
         stroke-linejoin="round"
         id="path1-6-4"
         style="fill:#1ee592;fill-opacity:1;stroke:#1ee592;stroke-opacity:1" /><path
         id="path1-3"
         style="fill:#1ee592;fill-opacity:1;stroke-width:6.66667"
         d="m 491.86419,755.42781 51.62149,-50.72883 c 0.50475,0.14494 1.00457,0.31929 1.51278,0.42552 l -2.35999,56.75596 c -24.4465,3.18421 -22.64543,38.9619 1.83542,39.88306 24.48085,0.92116 28.96548,-34.62002 4.82741,-39.63236 l 2.36538,-56.75203 c 17.99011,-2.24165 23.95324,-25.34027 9.30107,-36.01206 -14.65218,-10.67179 -34.80765,2.08997 -31.42223,19.9003 0,0 1.59579,5.0456 2.28802,6.26857 0.69222,1.22298 3.27328,4.56948 5.54113,6.22967 l -50.17713,48.74574 z m 61.14677,15.45892 c 9.60254,6.99393 5.95442,22.10428 -5.77963,23.94862 -11.73406,1.84434 -19.84179,-11.41823 -12.84786,-21.02077 4.33948,-5.94556 12.67328,-7.25545 18.62749,-2.92785 z m -34.96465,59.73206 63.60845,33.58962 c -0.0583,0.52189 -0.14633,1.04388 -0.16584,1.56269 l -86.17582,2.97136 0.83772,7.79521 86.20522,-4.15005 c 5.22652,17.35951 28.99801,19.36499 37.06179,3.13082 8.06378,-16.23419 -7.89698,-33.96437 -24.88747,-27.64042 l -36.02989,-54.06559 -5.79019,3.30971 36.02392,54.06262 c -2.17917,1.77498 -3.95592,3.99316 -5.21232,6.50728 l -61.41124,-32.49821 z m -12.87196,-31.90906 a 19.966668,19.966668 0 0 0 -18.77333,13.33334 h -69.12 c -0.18,-0.49334 -0.33333,-1 -0.54666,-1.47334 l 47.26665,-31.50666 a 20.040001,20.040001 0 1 0 -3.71999,-5.53334 l -47.26666,31.5 a 20.000001,20.000001 0 1 0 0,27.36667 l 47.26666,31.50667 a 19.820001,19.820001 0 0 0 -1.77333,8.14 20.133334,20.133334 0 1 0 5.48666,-13.68 L 416.73436,826.8564 a 19.820001,19.820001 0 0 0 1.77333,-8.14667 h 66.66666 a 20.000001,20.000001 0 1 0 20,-20 z m -40,-33.33333 a 13.333334,13.333334 0 1 1 13.33333,13.33333 13.346667,13.346667 0 0 1 -13.33333,-13.33333 z m 13.33333,93.33334 a 13.333334,13.333334 0 1 1 -13.33333,13.33333 13.346667,13.346667 0 0 1 13.33333,-13.33333 z m 26.66667,-26.66667 a 13.333334,13.333334 0 1 1 13.33333,-13.33334 13.346667,13.346667 0 0 1 -13.33333,13.33334 z" /><g
         id="g11"
         transform="matrix(0.74465514,0.15549,-0.15549,0.74465514,181.4386,-120.99599)"
         style="fill:#1ee592;fill-opacity:1"><circle
           style="opacity:0.99;fill:#1ee592;fill-opacity:1;stroke-width:3.918"
           id="path10"
           cx="304.69873"
           cy="220.48874"
           r="25" /><circle
           style="opacity:0.99;fill:#1ee592;fill-opacity:1;stroke-width:3.918"
           id="path10-9"
           cx="525"
           cy="266"
           r="25" /><circle
           style="opacity:0.99;fill:#1ee592;fill-opacity:1;stroke-width:3.918"
           id="path10-2"
           cx="407.58279"
           cy="285.00137"
           r="25" /><circle
           style="opacity:0.99;fill:#1ee592;fill-opacity:1;stroke-width:3.918"
           id="path10-6"
           cx="413.86017"
           cy="192.00597"
           r="25" /><circle
           style="opacity:0.99;fill:#1ee592;fill-opacity:1;stroke-width:3.918"
           id="path10-4"
           cx="528.85468"
           cy="180.86017"
           r="25" /><circle
           style="opacity:0.99;fill:#1ee592;fill-opacity:1;stroke-width:3.918"
           id="path10-1"
           cx="670.70837"
           cy="214.85649"
           r="25" /><circle
           style="opacity:0.99;fill:#1ee592;fill-opacity:1;stroke-width:3.918"
           id="path10-7"
           cx="602.00458"
           cy="302.13983"
           r="25" /><circle
           style="opacity:0.99;fill:#1ee592;fill-opacity:1;stroke-width:3.918"
           id="path10-62"
           cx="509.43375"
           cy="338.14261"
           r="25" /><circle
           style="opacity:0.99;fill:#1ee592;fill-opacity:1;stroke-width:3.918"
           id="path10-8"
           cx="380.57956"
           cy="367.4278"
           r="25" /><circle
           style="opacity:0.99;fill:#1ee592;fill-opacity:1;stroke-width:3.918"
           id="path10-0"
           cx="294.00366"
           cy="307.7171"
           r="25" /></g></g></g></svg>
